<?xml version="1.0" encoding="utf-8"?>
<!DOCTYPE svg PUBLIC "-//W3C//DTD SVG 1.1//EN" "http://www.w3.org/Graphics/SVG/1.1/DTD/svg11.dtd">
<svg version="1.1" xmlns="http://www.w3.org/2000/svg" xmlns:xlink="http://www.w3.org/1999/xlink" 
	x="0px" y="0px" width="1000px" height="1500px" viewBox="0 0 1000 1500">
	<defs>
		<style type="text/css"><![CDATA[
			.gold {fill: url(#GOLD);}
			.white {fill: #FFFFFF; filter: url(#DROPSHADOW);}
			.silver {fill: url(#SILVER);}
		]]></style>
		<linearGradient id="GOLD" gradientUnits="objectBoundingBox"
			spreadMethod="repeat" x1="0%" y1="-10%" x2="80%" y2="110%">
			<stop offset="0.00" style="stop-color: hsl(45, 100%, 80%);" />
			<stop offset="0.20" style="stop-color: hsl(45, 50%, 65%);" />
			<stop offset="0.25" style="stop-color: hsl(45, 80%, 55%);" />
			<stop offset="0.50" style="stop-color: hsl(45, 90%, 80%);" />
			<stop offset="0.60" style="stop-color: hsl(45, 50%, 75%);" />
			<stop offset="0.70" style="stop-color: hsl(45, 50%, 55%);" />
			<stop offset="0.85" style="stop-color: hsl(45, 50%, 50%);" />
			<stop offset="0.90" style="stop-color: hsl(45, 50%, 50%);" />
			<stop offset="1.00" style="stop-color: hsl(45, 60%, 65%);" />
		</linearGradient>
		<linearGradient id="SILVER" gradientUnits="objectBoundingBox"
			spreadMethod="repeat" x1="20%" y1="-10%" x2="80%" y2="110%">
			<stop offset="0.00" style="stop-color: hsl(200, 15%, 85%);" />
			<stop offset="0.20" style="stop-color: hsl(200, 5%, 75%);" />
			<stop offset="0.25" style="stop-color: hsl(200, 7%, 70%);" />
			<stop offset="0.50" style="stop-color: hsl(200, 10%, 95%);" />
			<stop offset="0.60" style="stop-color: hsl(200, 5%, 90%);" />
			<stop offset="0.70" style="stop-color: hsl(200, 5%, 75%);" />
			<stop offset="0.75" style="stop-color: hsl(200, 5%, 70%);" />
			<stop offset="0.90" style="stop-color: hsl(200, 5%, 80%);" />
			<stop offset="1.00" style="stop-color: hsl(200, 6%, 70%);" />
		</linearGradient>
		<filter id="DROPSHADOW">
			<feDropShadow stdDeviation="18" flood-opacity="1"/>
		</filter>
		<path id="barto" d="M369.8,147.4l3.6,231.8l-52.8-8.4l-1-223.6l-40.1-2.6l0.8,22.7l-81.7-2.7l-6.9,205.4l-50.1,3.6l9.7-213.8
			l-63.9,4.9l4.7-50l143.2-0.6l1.6-22.7l196.7,19.4l3.4,47.7L369.8,147.4z M528.7,356.1v-88.4l70.8-5.2l1.1,110.7l58-5
			c-1.2-82.8-0.7-160.9,0.9-249.4l-54.4,3.4l1.8,94.6l-78,4.2l-3.6-117.7l-54.6,2.6c3.8,95.8,5.7,181,5.7,255.4L528.7,356.1z
			 M736.4,152.2C654,235.1,716.3,389.6,839,361.9c8.2,14.6,16.5,29.8,25,45.7l37.5-25.3c-10.2-14-19.6-27.4-28.2-40.2
			c44.4-37.3,48.1-117,20.7-167.5C867.1,120,780.4,106.9,736.4,152.2z M849.2,303.7c-10.8-18.2-19.6-35-26.4-50.4l-38.5,21.2
			c10.9,15.6,21.9,32.6,33,50.8c-82.3-0.2-85.9-154.8-7.1-163.6C873.3,169.2,876.1,259.9,849.2,303.7z" />
		<path id="chub" d="M385.7,165.8c0.7,40.9,1.8,131.4,3.4,213.8c-0.4,9.4-10.2,15.2-19,14.4c-13.7-2.4-30.3-4.7-55.4-8.4
			c-3.9-0.8-7.1-2.4-9.7-4.8c-10.7-46.6-1.3-132.3-4.9-219.8c-0.4,0-0.9,0-1.4-0.1c2.2,11.3-2.3,22.8-15.3,22.5
			c-29.5-0.9-51.7-1.7-66.7-2.4c-6.1,91.6,1.1,152.1-10.5,201c-2.5,2.3-5.6,3.6-9.3,4.1c-23.8,1.4-39.6,2.2-52.6,3.3
			c-9.1-0.1-17.5-7.9-17.5-17.1c4.1-86.7,7-151.7,8.9-194.8c-82.9,9.7-61.2-5.8-58.4-65.2c0.7-7.5,7.6-12.4,15.1-12
			c48.6-0.3,90.1-0.6,124.4-0.9c-1.6-12.7,7.3-23.6,20.6-22.3c43.4,4.5,108.9,11.2,196.4,20c7.5,0.4,14.9,5.3,15.6,12.8
			C453.3,174.9,465.8,180.6,385.7,165.8z M661.2,383.4c24.2-1.7,11.7-41.7,14.1-59.3c-0.2-67.8,0.5-134.8,1.4-204.1
			c-2.8-25.4-43.8-10.1-71.9-11.2c-8.3,0.4-15.6,6.3-15.5,14.8c0.3,17.6,0.8,44.4,1.4,80.2c-10.3,0.5-25.5,1.3-45.5,2.4
			c-0.9-22.7-2.1-56.9-3.6-102.7c0.3-8.3-8.3-13.7-15.9-14c-12.8,1.6-30.6,1.4-55.5,2.8c-4.6,0.3-8.3,1.7-11.4,4.4
			c-3.1,3-4.3,6.4-4.1,10.4c1.8,47.6,3.2,92.8,4.1,135.5c0.9,42.5,1.4,82.3,1.4,119.5c0.3,5.9,5.6,12.3,11.4,13.6
			c94-5.5,71.5,4.3,74.2-94.2c8.5-0.8,21.2-1.7,38.2-2.8c0,21.1,0.3,52.8,0.9,95c0,6.3,4.5,11.3,10.5,13.6
			C614.5,389.3,629.9,384.9,661.2,383.4z M911.7,397c18.9-12.8-11-36.6-17.8-49.8c41.4-46.4,43.8-121.7,15.5-175.8
			c-25.8-51.3-94.6-71-147-50.2c-71.7,27.7-94,118.5-67.4,185.2c21,52.1,82.2,82.8,136.1,75.1c9.2,12.5,15.1,40.5,31.4,43.7
			C879.7,424.2,890,409.5,911.7,397z M815.7,244c-8,5-27.1,13.4-42.3,24.1c-17.5-115.1,93.4-117.8,74.2,0.8
			c-6.3-10.1-7.5-25.2-21.4-26.9C822.7,240.9,818.3,242.1,815.7,244z" />
		<path id="fat" d="M953.1,199.5C933.9,91.3,797,44.8,712,111.5C704.4,91.8,683.1,81,662.6,82c-38.6,5-57.4-3.3-84.2,14.8
			c-7-19.9-28.9-31.3-49.6-30.5c-34.2,3.3-49-0.9-73.2,6.9c-59.1-13.5-115.1-12-215.7-24.1c-8.2-1.1-16.4,0-24.3,2
			c-10.4,3.4-20.5,9.2-26.6,18.2c-40.3,0.1-72.9,0.2-97.9,0.3c-54,0.5-44.5,56.7-49.6,88.1c-3,31.9,30.5,58.2,61.1,53.2
			c-0.2,83.4-12.6,126.4-2.9,177.6c19.9,43.6,71.8,29.7,103.3,27.9c21.5-1,41-18.5,41.2-40.2c2.4-72.8,4.3-127.2,5.7-163.3
			c5.2,0.2,10,0.4,14.4,0.5c0.3,40.3,0.5,102.9,0.8,158c0,10.2,4.1,19.2,12.2,27.3c24.9,21.4,45.1,14.7,83.1,23.7
			c27.2,3.8,61.8-13,61.8-43.7c-0.6-33.1-1.5-111.8-2.4-178.1c2.6,0.5,7.8,1.1,10.9,1.5c1.6,54.8,2.6,115.3,2.5,165.7
			c0,6.2,1.5,12,4.6,17.6c8.9,18.1,30.5,27.7,50.1,25.3c35.1-5.4,49.9-0.7,74.6-12.8c18.5,38.1,81.9,19.7,107.4,19.6
			c22.4-1.4,43.4-18.2,44.1-40.7c28.2,19.9,61,31.2,95.4,32.3c6.6,11.3,11.1,24.5,22.3,32.2c17.1,12.5,43.2,13.4,60.5,0.8
			c45-29,79.7-48.2,39.1-97.5C959.2,303.7,964.4,247.5,953.1,199.5z"/>
	</defs>
	<rect id="bg" fill="none" width="1000" height="1500"/>
	<g class="over">
		<use class="white" xlink:href="#fat" />
		<use class="gold" xlink:href="#chub" />
		<use class="silver" xlink:href="#barto" />
	</g>
	<g class="up" transform="translate(0, 500)">
		<use class="white" xlink:href="#fat" />
		<use class="silver" xlink:href="#chub" />
		<use class="gold" xlink:href="#barto" />
	</g>
	<g class="down" transform="translate(-10, 1010)">
		<use class="white" xlink:href="#fat" />
		<use class="gold" xlink:href="#chub" />
		<use class="silver" xlink:href="#barto" />
	</g>
</svg>
